<?xml version="1.0" standalone="no"?>
<!DOCTYPE svg PUBLIC "-//W3C//DTD SVG 20010904//EN"
 "http://www.w3.org/TR/2001/REC-SVG-20010904/DTD/svg10.dtd">
<svg version="1.0" xmlns="http://www.w3.org/2000/svg"
 width="1024.000000pt" height="1024.000000pt" viewBox="0 0 1024.000000 1024.000000"
 preserveAspectRatio="xMidYMid meet">

<g transform="translate(0.000000,1024.000000) scale(0.100000,-0.100000)"
fill="#000000" stroke="none">
<path d="M6201 9151 c114 -60 206 -177 299 -377 75 -160 90 -218 100 -388 5
-83 7 -152 5 -155 -3 -2 -5 9 -6 25 0 25 -2 26 -8 9 l-8 -20 -5 20 c-3 11 -6
-5 -7 -36 -1 -68 25 -212 45 -252 9 -16 13 -31 11 -33 -6 -6 -131 249 -147
301 -7 22 -15 35 -17 30 -2 -6 19 -81 46 -166 27 -86 55 -193 61 -240 12 -90
82 -365 130 -514 16 -49 36 -125 44 -168 15 -75 14 -80 -9 -160 -13 -45 -28
-93 -34 -107 -17 -43 -13 8 5 71 27 91 8 186 -75 374 -17 39 -49 117 -71 175
-23 58 -63 144 -91 193 -28 48 -64 113 -80 145 -26 48 -29 52 -23 22 4 -19 8
-44 7 -55 -8 -240 -6 -269 27 -363 28 -83 31 -98 21 -135 -11 -47 -75 -186
-66 -147 3 14 -4 5 -15 -19 -12 -25 -18 -52 -14 -64 4 -13 2 -17 -5 -13 -7 5
-11 -3 -11 -20 0 -15 -7 -66 -16 -113 -11 -56 -14 -107 -10 -146 4 -33 13
-116 20 -185 10 -92 12 -150 4 -220 -9 -97 -42 -243 -60 -270 -7 -12 -8 -11
-3 5 32 99 45 190 45 315 0 74 -5 162 -10 195 -22 141 -50 288 -55 293 -14 14
-20 -18 -22 -111 -2 -90 1 -139 22 -312 l5 -40 -15 45 c-9 25 -22 90 -31 145
-17 115 -22 135 -34 135 -4 0 -12 -17 -18 -37 -16 -60 -13 -5 4 67 8 36 19 98
25 139 5 41 21 106 35 145 14 39 35 109 45 156 11 47 33 111 50 144 16 32 28
60 26 62 -2 2 -24 -35 -49 -84 -43 -81 -88 -207 -119 -329 -7 -29 -16 -50 -20
-48 -4 3 -17 -32 -30 -78 -18 -62 -24 -113 -26 -207 l-3 -125 20 38 c30 55 35
45 6 -12 -14 -27 -22 -51 -19 -55 4 -3 1 -6 -6 -6 -7 0 -10 -4 -7 -9 4 -5 2
-11 -2 -13 -14 -5 -69 -157 -83 -228 -7 -36 -16 -69 -19 -73 -4 -5 -17 40 -30
100 -36 173 -17 283 71 401 38 51 39 54 10 27 -36 -34 -91 -124 -91 -149 0
-10 -4 -14 -10 -11 -5 3 -12 -7 -16 -22 -3 -15 -10 -44 -15 -63 -5 -19 -9 -55
-10 -80 -1 -40 -2 -42 -8 -15 -5 21 -9 -2 -14 -75 -18 -263 -31 -399 -39 -388
-5 8 -8 -2 -9 -27 l-2 -40 -4 35 c-2 19 -13 82 -23 140 -24 126 -25 225 -5
305 23 92 24 95 16 95 -4 0 -12 -12 -18 -27 -10 -27 -11 -26 -12 15 -1 50 -19
90 -68 150 -41 51 -62 56 -29 7 38 -55 50 -124 43 -245 -7 -121 -20 -154 -113
-295 -29 -44 -63 -105 -77 -135 -13 -30 -60 -100 -104 -155 -44 -55 -85 -109
-91 -121 -22 -41 -64 -175 -83 -261 -17 -80 -19 -83 -13 -28 3 33 10 77 15 99
16 59 2 55 -16 -6 -9 -32 -18 -109 -21 -198 -3 -79 -6 -146 -8 -148 -2 -2 -9
36 -16 84 -15 106 -8 219 18 294 28 79 136 318 196 435 50 98 51 102 49 180
-1 44 -9 103 -17 130 l-15 50 7 -55 c10 -82 5 -180 -12 -228 -17 -48 -140
-238 -208 -322 -149 -184 -241 -369 -267 -539 -10 -64 4 -209 29 -301 6 -19
10 -48 9 -65 0 -26 -5 -21 -35 40 -51 106 -85 248 -91 390 -5 106 -3 128 17
185 22 67 112 234 158 294 15 19 49 63 75 98 27 35 34 47 17 28 -18 -19 -108
-111 -199 -205 -362 -371 -519 -593 -586 -830 -45 -156 -124 -365 -100 -260 5
21 4 27 -3 20 -6 -5 -15 -32 -20 -60 l-10 -50 -1 54 c-1 56 40 215 59 226 6 3
10 16 10 27 0 18 -8 13 -45 -26 -25 -27 -45 -58 -46 -70 0 -19 -1 -19 -11 4
-13 34 -4 192 16 255 9 28 41 83 73 125 l57 74 -53 -44 c-62 -52 -102 -108
-129 -176 -32 -84 -113 -195 -218 -300 -62 -62 -128 -186 -185 -350 -22 -63
-47 -127 -55 -142 l-14 -27 0 30 c1 29 14 148 25 210 4 24 0 20 -20 -20 l-25
-50 6 45 c7 46 91 224 138 293 14 20 21 37 15 37 -5 0 -34 -38 -65 -85 -150
-230 -266 -578 -284 -854 -6 -79 -11 -146 -13 -148 -6 -6 -87 207 -93 245 -7
48 4 76 55 134 l42 47 -46 -15 c-43 -15 -85 -54 -85 -79 0 -6 -24 -28 -53 -48
-82 -56 -91 -79 -84 -206 6 -112 23 -188 62 -284 22 -55 23 -61 9 -100 -24
-67 -73 -161 -77 -146 -13 49 -61 174 -68 177 -4 2 -5 13 -2 25 3 16 2 18 -5
9 -7 -10 -13 -5 -24 20 -46 98 -55 214 -23 282 10 20 20 34 23 31 3 -3 0 -11
-6 -17 -7 -7 -12 -19 -12 -28 0 -9 5 -5 13 10 7 14 26 46 41 73 15 26 24 47
19 47 -14 0 -79 -72 -98 -108 -29 -58 -31 -158 -5 -263 18 -75 21 -109 16
-169 -4 -42 -3 -69 2 -62 6 9 12 1 19 -25 12 -40 7 -103 -8 -103 -5 0 -9 -13
-9 -29 0 -16 -10 -60 -22 -97 l-23 -69 -6 155 c-4 87 -14 188 -24 230 -32 140
-34 155 -34 215 -1 33 6 114 14 180 8 65 15 121 15 123 0 2 -4 1 -9 -2 -33
-21 -80 -407 -59 -484 5 -19 8 -36 5 -38 -2 -2 -13 29 -25 69 -18 62 -29 81
-66 115 -51 47 -87 67 -136 76 l-35 7 39 -22 c61 -33 140 -118 154 -165 13
-44 37 -244 47 -389 l6 -90 -26 30 c-38 45 -94 163 -105 224 -6 29 -10 87 -10
128 0 47 -6 85 -15 103 -9 17 -17 30 -18 30 -1 0 -1 -75 -1 -167 1 -122 6
-181 17 -217 9 -27 14 -53 11 -58 -3 -4 -1 -8 5 -8 6 0 8 -6 5 -13 -8 -21 24
-88 73 -150 l44 -57 -22 -33 c-13 -17 -45 -58 -72 -89 -48 -57 -49 -58 -26
-66 l23 -9 -24 -12 c-31 -16 -28 -12 -242 -277 -98 -120 -194 -237 -213 -260
-29 -34 -33 -44 -26 -70 6 -23 4 -34 -12 -54 -11 -14 24 20 78 75 144 147 229
258 286 370 46 89 64 112 168 215 64 64 148 149 187 190 57 60 74 73 83 62 16
-16 25 -10 112 68 61 54 159 181 159 206 0 18 118 148 180 199 91 74 123 112
165 193 19 37 40 74 45 82 16 25 190 437 190 451 0 7 3 10 6 6 22 -21 -145
-497 -174 -497 -6 0 -13 -7 -16 -16 -9 -24 29 7 254 206 113 100 252 223 310
273 210 180 592 538 909 852 768 759 1214 1337 1449 1875 183 417 239 678 250
1170 5 205 8 257 14 205 8 -83 7 -724 -2 -680 -5 22 -9 6 -14 -55 -36 -385
-334 -1026 -710 -1525 -120 -160 -264 -338 -410 -509 -67 -78 -134 -157 -150
-176 -15 -19 -87 -97 -159 -173 l-130 -139 72 37 c40 20 77 35 82 33 5 -2 -28
-21 -73 -42 -73 -34 -96 -53 -197 -155 -62 -64 -131 -138 -153 -164 l-41 -48
35 21 c95 56 303 80 698 80 135 0 258 0 275 0 50 1 192 66 287 131 49 33 130
79 179 100 113 49 172 79 166 85 -2 2 -80 -20 -172 -51 -93 -30 -192 -57 -219
-60 -49 -4 -48 -4 14 10 110 26 237 74 225 87 -3 2 -60 -3 -127 -13 -68 -9
-161 -19 -208 -23 l-85 -5 71 13 c38 7 79 18 90 24 10 6 62 23 114 37 118 32
165 54 310 140 163 98 290 224 404 399 50 77 28 63 -26 -17 -80 -118 -143
-171 -290 -242 -155 -75 -325 -123 -533 -149 -181 -22 -186 -23 -140 -25 22 0
76 3 120 9 44 5 103 11 130 14 l50 5 -55 -13 c-48 -11 -51 -13 -25 -17 17 -2
-37 -5 -120 -6 -204 -3 -432 -27 -555 -57 -14 -4 3 5 36 18 34 14 162 52 285
85 291 78 513 152 620 207 119 61 144 84 32 29 -122 -60 -242 -86 -408 -90
-76 -2 -175 -11 -240 -24 -60 -11 -110 -19 -112 -17 -3 3 106 33 347 97 418
109 492 139 651 260 78 60 462 419 409 383 -8 -6 -35 -26 -60 -45 -42 -33
-174 -99 -265 -132 -190 -70 -285 -98 -375 -112 -58 -9 -138 -23 -179 -31 -41
-8 -76 -12 -78 -10 -3 2 76 30 174 61 308 99 423 152 639 295 142 94 344 239
344 246 0 7 -54 -23 -179 -98 -163 -99 -271 -151 -407 -198 -64 -22 -119 -39
-120 -37 -2 2 19 14 46 27 28 13 56 30 63 39 10 12 9 13 -3 6 -13 -8 -13 -7
-1 8 15 19 36 23 25 5 -4 -7 -3 -8 5 -4 6 4 9 11 6 16 -3 5 4 14 16 20 17 10
20 9 13 -2 -11 -17 78 53 139 111 66 62 155 171 209 256 43 68 150 265 143
265 -2 0 -26 -30 -53 -67 -63 -84 -137 -156 -222 -215 -65 -46 -220 -128 -240
-128 -6 0 15 21 47 47 178 144 265 229 355 348 30 40 30 39 -12 -5 -32 -34
-38 -38 -24 -15 88 146 121 210 155 301 22 59 38 108 36 110 -2 3 -14 -24 -27
-58 -66 -183 -176 -333 -319 -435 -63 -45 -201 -126 -207 -120 -1 1 27 27 63
57 100 84 188 184 243 275 28 46 50 89 50 96 0 7 3 9 7 6 7 -8 33 11 33 25 0
5 -5 6 -12 2 -8 -5 -9 -2 -5 10 4 10 -16 -8 -45 -39 -48 -53 -125 -112 -134
-103 -2 3 19 21 46 42 27 20 64 54 83 75 44 49 109 164 113 202 2 17 8 38 14
49 5 10 10 25 10 32 0 7 -15 -15 -34 -49 -49 -91 -143 -219 -211 -288 -51 -51
-247 -185 -272 -185 -4 0 31 39 78 88 183 185 283 321 377 508 81 164 113 304
111 498 -2 131 -2 131 -32 -77 -19 -125 -56 -203 -133 -277 -36 -35 -52 -46
-44 -30 13 24 12 24 -5 10 -17 -14 -17 -13 -8 5 6 11 12 25 13 30 1 6 4 12 7
15 4 3 3 -1 -2 -9 -6 -10 -4 -12 4 -7 7 5 10 15 7 23 -3 8 -2 12 3 9 14 -9
102 193 127 293 21 81 24 117 24 267 0 171 -11 225 -24 122 -21 -164 -96 -374
-196 -548 -68 -120 -103 -165 -128 -167 -20 -2 -20 -1 4 45 80 148 169 378
206 532 23 97 34 275 21 335 -7 33 -9 23 -10 -60 -2 -156 -53 -358 -138 -539
-48 -104 -67 -128 -34 -44 30 77 78 286 85 375 9 120 -32 399 -91 608 -15 52
-83 181 -91 172 -5 -4 20 -84 29 -93 9 -9 7 -211 -2 -244 -5 -16 -9 15 -12 85
-5 94 -9 118 -33 165 -15 30 -40 69 -56 85 -16 17 -29 33 -29 38 -2 24 -69
133 -125 203 -76 94 -148 162 -225 212 -67 43 -244 111 -308 118 l-48 5 56
-30z m604 -491 c3 -5 1 -10 -4 -10 -6 0 -11 5 -11 10 0 6 2 10 4 10 3 0 8 -4
11 -10z m-360 -1060 c4 -30 15 -98 25 -150 10 -52 17 -96 15 -98 -10 -10 -58
88 -80 164 -20 71 -25 106 -24 198 l1 111 28 -85 c16 -47 32 -110 35 -140z
m808 -55 c-3 -9 -8 -14 -10 -11 -3 3 -2 9 2 15 9 16 15 13 8 -4z m-36 -86 c-8
-19 -22 -43 -31 -54 -9 -11 -4 6 11 37 30 60 44 73 20 17z m-64 -114 c-3 -9
-8 -14 -10 -11 -3 3 -2 9 2 15 9 16 15 13 8 -4z m-31 -95 c-15 -28 -47 -72
-70 -98 l-44 -47 48 70 c94 138 112 158 66 75z m-781 -107 c-12 -20 -14 -14
-5 12 4 9 9 14 11 11 3 -2 0 -13 -6 -23z m-184 -105 c-3 -7 -5 -2 -5 12 0 14
2 19 5 13 2 -7 2 -19 0 -25z m-270 -555 c-3 -10 -5 -4 -5 12 0 17 2 24 5 18 2
-7 2 -21 0 -30z m-10 -95 c-3 -7 -5 -2 -5 12 0 14 2 19 5 13 2 -7 2 -19 0 -25z
m1313 -179 c-59 -54 -145 -123 -120 -96 23 25 164 147 170 146 3 0 -20 -23
-50 -50z m-986 -168 c-20 -45 -39 -80 -40 -78 -2 2 13 40 33 85 20 45 39 80
41 78 2 -2 -13 -41 -34 -85z m356 -35 c0 -2 -7 -7 -16 -10 -8 -3 -12 -2 -9 4
6 10 25 14 25 6z m-40 -21 c0 -2 -47 -28 -104 -58 -58 -29 -103 -49 -100 -45
3 5 49 31 102 58 107 54 102 52 102 45z m-379 -82 c-12 -20 -14 -14 -5 12 4 9
9 14 11 11 3 -2 0 -13 -6 -23z m759 -378 c0 -6 -125 -75 -136 -75 -5 0 23 18
61 40 76 43 75 42 75 35z m-2143 -127 c-27 -38 -102 -169 -136 -235 -32 -65
-91 -232 -91 -260 0 -9 -3 -14 -6 -11 -9 9 16 128 41 196 25 67 106 208 163
285 36 47 59 67 29 25z m983 -395 c-8 -4 -46 -19 -84 -34 -38 -15 -65 -24 -60
-19 13 13 126 59 144 59 13 -1 13 -1 0 -6z m930 2 c0 -6 -56 -35 -67 -35 -4 1
8 9 27 20 39 22 40 22 40 15z m-130 -60 c0 -6 -73 -25 -78 -20 -2 2 11 8 29
14 41 11 49 12 49 6z m-2053 -27 c-3 -8 -6 -5 -6 6 -1 11 2 17 5 13 3 -3 4
-12 1 -19z m1916 5 c-7 -2 -19 -2 -25 0 -7 3 -2 5 12 5 14 0 19 -2 13 -5z m44
-9 c-3 -3 -12 -4 -19 -1 -8 3 -5 6 6 6 11 1 17 -2 13 -5z m-57 -14 c-14 -4
-36 -8 -50 -8 -22 0 -22 1 5 8 17 4 39 8 50 8 16 0 15 -2 -5 -8z m-1913 -22
c-3 -8 -6 -5 -6 6 -1 11 2 17 5 13 3 -3 4 -12 1 -19z m1053 19 c0 -2 -10 -12
-22 -23 l-23 -19 19 23 c18 21 26 27 26 19z m-1063 -59 c-3 -8 -6 -5 -6 6 -1
11 2 17 5 13 3 -3 4 -12 1 -19z m-466 -155 c-5 -10 -17 -27 -26 -38 -16 -19
-17 -19 -3 5 26 46 29 50 34 50 3 0 0 -8 -5 -17z m456 -60 c-2 -16 -4 -3 -4
27 0 30 2 43 4 28 2 -16 2 -40 0 -55z m1720 21 c-3 -3 -12 -4 -19 -1 -8 3 -5
6 6 6 11 1 17 -2 13 -5z m-2234 -126 c-26 -51 -60 -122 -75 -158 -36 -87 -35
-55 1 38 27 68 106 212 117 212 2 0 -17 -42 -43 -92z m938 3 c-17 -34 -33 -61
-36 -61 -3 0 10 29 27 65 18 35 34 63 36 61 2 -2 -11 -31 -27 -65z m-994 -193
c-3 -8 -6 -5 -6 6 -1 11 2 17 5 13 3 -3 4 -12 1 -19z m-4 -53 c-8 -22 -22 -18
-16 5 3 11 9 17 14 15 4 -3 6 -12 2 -20z m-46 -7 c-3 -8 -6 -5 -6 6 -1 11 2
17 5 13 3 -3 4 -12 1 -19z m-241 -135 c-27 -192 -39 -242 -30 -123 3 41 9 79
12 85 7 11 8 17 10 53 1 12 4 22 8 22 3 0 3 -17 0 -37z m575 -154 c-35 -99
-132 -289 -148 -289 -2 0 16 37 40 83 24 45 62 123 83 174 41 101 55 118 25
32z m-584 -26 c-3 -10 -5 -4 -5 12 0 17 2 24 5 18 2 -7 2 -21 0 -30z m-10 -60
c-3 -10 -5 -4 -5 12 0 17 2 24 5 18 2 -7 2 -21 0 -30z m20 -43 c-1 -43 -4 -54
-10 -38 -7 20 -1 98 8 98 2 0 2 -27 2 -60z m-324 -33 c-9 -49 18 -181 57 -279
44 -108 44 -137 1 -202 l-19 -29 -31 61 c-72 142 -102 332 -65 405 31 61 65
87 57 44z m242 -407 c-19 -38 -38 -70 -40 -70 -3 0 11 32 30 70 19 39 38 70
40 70 3 0 -11 -31 -30 -70z m-617 -295 c0 -16 -2 -15 -8 5 -11 34 -11 60 0 35
5 -11 8 -29 8 -40z m9 -47 c-3 -8 -6 -5 -6 6 -1 11 2 17 5 13 3 -3 4 -12 1
-19z m-99 -356 c22 -24 38 -33 52 -29 17 4 18 2 9 -15 -10 -19 -13 -18 -51 18
-22 22 -46 53 -54 69 -8 17 -9 21 -2 10 7 -11 28 -35 46 -53z"/>
<path d="M6366 7255 c-9 -26 -7 -32 5 -12 6 10 9 21 6 23 -2 3 -7 -2 -11 -11z"/>
<path d="M6005 6980 c10 -11 20 -20 23 -20 3 0 -3 9 -13 20 -10 11 -20 20 -23
20 -3 0 3 -9 13 -20z"/>
<path d="M6192 6965 c0 -16 2 -22 5 -12 2 9 2 23 0 30 -3 6 -5 -1 -5 -18z"/>
<path d="M7725 6940 c-8 -12 20 -24 35 -15 6 3 8 11 5 16 -8 12 -32 12 -40 -1z"/>
<path d="M6051 6904 c0 -11 3 -14 6 -6 3 7 2 16 -1 19 -3 4 -6 -2 -5 -13z"/>
<path d="M7898 6623 c-32 -8 -19 -23 20 -22 29 0 33 2 17 8 -19 8 -18 9 5 13
l25 5 -25 0 c-14 1 -33 -1 -42 -4z"/>
<path d="M7615 6305 c4 -11 10 -28 12 -37 6 -20 19 -23 29 -7 3 6 -6 23 -21
38 -23 22 -26 23 -20 6z"/>
<path d="M7731 5969 c-13 -11 -21 -23 -17 -26 4 -4 16 3 28 15 28 28 20 36
-11 11z"/>
<path d="M4333 5304 c-28 -30 -37 -34 -83 -34 -44 0 -56 4 -81 29 -26 26 -30
28 -38 13 -23 -45 45 -92 134 -92 54 0 102 37 111 88 8 40 -2 39 -43 -4z"/>
<path d="M7445 5015 c-35 -37 -50 -45 -103 -55 -85 -17 -93 -35 -13 -27 69 6
109 27 146 77 47 64 28 67 -30 5z"/>
<path d="M6715 4659 c-4 -6 -5 -12 -2 -15 2 -3 7 2 10 11 7 17 1 20 -8 4z"/>
<path d="M4231 4629 c-6 -18 -11 -37 -10 -43 0 -6 7 7 15 28 8 22 12 41 10 43
-2 2 -9 -10 -15 -28z"/>
<path d="M6650 4519 c-58 -21 -219 -51 -360 -69 -47 -6 -247 -10 -445 -10
-449 0 -593 -10 -718 -50 -51 -16 -115 -44 -142 -61 -28 -17 -212 -194 -410
-393 -198 -199 -485 -483 -639 -632 -198 -191 -293 -291 -329 -344 -28 -41
-92 -118 -142 -170 -92 -97 -194 -216 -162 -191 28 22 19 2 -19 -42 -31 -37
-109 -176 -101 -183 1 -1 27 4 57 12 30 8 240 35 465 60 226 24 442 50 480 57
l70 12 6 45 c3 25 9 62 13 82 8 36 8 37 -28 44 -35 6 -36 7 -20 25 9 11 13 19
8 19 -14 1 39 29 54 30 8 0 21 9 31 21 13 16 27 21 66 20 28 0 68 2 90 6 33 5
37 7 19 13 -12 5 -178 2 -370 -5 -364 -15 -402 -19 -525 -69 l-61 -25 34 38
c38 45 59 55 148 75 176 39 721 52 895 21 50 -9 106 -17 125 -19 19 -2 24 -1
10 1 l-25 5 30 14 c17 8 21 12 11 9 -11 -3 -22 -2 -25 3 -3 5 -60 23 -126 40
l-120 30 70 1 c43 0 108 -9 170 -25 55 -14 129 -31 165 -38 36 -7 85 -22 110
-34 25 -12 37 -17 26 -10 -10 7 -59 43 -110 80 -221 163 -249 176 -416 202
-226 35 -351 30 -595 -24 -75 -17 -140 -29 -143 -26 -3 4 -2 6 1 6 4 0 67 18
139 40 213 64 344 84 523 76 232 -9 342 -33 417 -91 76 -59 208 -69 332 -25
59 21 215 86 220 91 2 2 -97 5 -221 5 -124 1 -228 6 -232 10 -8 11 -284 80
-381 95 -73 11 -451 7 -510 -6 l-25 -6 25 12 c77 34 207 52 380 52 156 0 188
-3 295 -28 112 -25 135 -27 335 -27 153 0 245 5 320 17 58 10 179 21 270 24
153 7 171 10 247 40 44 17 87 38 93 46 10 12 5 12 -26 -2 -30 -13 -71 -17
-181 -18 -79 -1 -143 0 -143 1 0 1 28 12 63 23 34 12 76 31 92 42 33 23 39 24
-70 -7 -27 -8 -67 -14 -88 -14 -21 0 -36 -3 -34 -7 11 -19 -291 -14 -463 6
-211 25 -401 58 -415 72 -7 7 -4 8 8 3 10 -4 28 -2 40 4 12 6 87 13 167 15
107 3 154 8 180 20 19 9 26 15 15 12 -78 -19 -184 -23 -325 -13 -85 5 -206 8
-268 6 -124 -5 -125 -1 -13 42 75 29 168 47 302 60 481 45 645 68 759 107 101
34 200 78 200 88 0 3 -18 -4 -39 -15 -22 -11 -75 -30 -118 -42 -71 -21 -97
-23 -298 -22 -121 1 -256 7 -300 13 -44 6 -137 14 -208 18 -70 3 -126 7 -125
9 2 1 37 10 78 19 55 12 154 19 365 25 327 9 374 16 579 84 163 55 200 72 291
141 39 29 86 60 105 70 56 28 151 87 148 91 -2 2 -64 -13 -138 -32 -124 -32
-149 -36 -305 -39 -124 -3 -149 -2 -94 4 42 5 85 14 95 20 18 12 18 12 -1 6
-41 -14 -244 -24 -380 -19 -153 5 -269 14 -263 19 2 2 55 16 118 30 125 29
350 53 525 56 79 1 99 4 70 9 l-40 7 55 3 55 3 -40 7 c-36 6 -37 7 -10 9 17 1
77 6 135 12 58 6 128 12 155 14 74 4 455 154 486 191 6 8 10 13 8 13 -2 -1
-29 -10 -59 -20z m-702 -106 c-26 -2 -71 -2 -100 0 -29 2 -8 3 47 3 55 0 79
-1 53 -3z m-1695 -1630 c-7 -2 -19 -2 -25 0 -7 3 -2 5 12 5 14 0 19 -2 13 -5z
m-887 -231 c-17 -16 -18 -16 -5 5 7 12 15 20 18 17 3 -2 -3 -12 -13 -22z m881
3 c-5 -12 -23 -15 -84 -14 -104 1 -144 17 -48 19 39 2 84 5 100 9 36 9 39 7
32 -14z m-917 -55 c-6 -11 -13 -20 -16 -20 -2 0 0 9 6 20 6 11 13 20 16 20 2
0 0 -9 -6 -20z"/>
<path d="M2750 4258 c0 -24 22 -38 60 -38 83 1 76 39 -9 48 -40 3 -51 1 -51
-10z"/>
<path d="M3258 4020 c-9 -28 -13 -48 -8 -45 11 7 40 95 31 95 -4 0 -14 -23
-23 -50z"/>
<path d="M2465 3890 c-8 -13 13 -50 29 -50 17 0 27 25 20 45 -7 17 -40 20 -49
5z"/>
<path d="M3022 3555 c0 -16 2 -22 5 -12 2 9 2 23 0 30 -3 6 -5 -1 -5 -18z"/>
<path d="M3043 3520 c0 -25 2 -35 4 -22 2 12 2 32 0 45 -2 12 -4 2 -4 -23z"/>
<path d="M3052 3450 c0 -14 2 -19 5 -12 2 6 2 18 0 25 -3 6 -5 1 -5 -13z"/>
<path d="M3665 3359 c-4 -6 -5 -12 -2 -15 2 -3 7 2 10 11 7 17 1 20 -8 4z"/>
<path d="M3001 3224 c0 -11 3 -14 6 -6 3 7 2 16 -1 19 -3 4 -6 -2 -5 -13z"/>
<path d="M5126 2845 c-11 -8 -15 -15 -10 -15 6 0 19 7 30 15 10 8 15 14 9 14
-5 0 -19 -6 -29 -14z"/>
<path d="M4538 2813 c7 -3 16 -2 19 1 4 3 -2 6 -13 5 -11 0 -14 -3 -6 -6z"/>
<path d="M5170 2769 c41 -18 131 -29 174 -21 36 6 29 8 -49 13 -49 4 -103 9
-120 13 -29 6 -29 6 -5 -5z"/>
<path d="M4291 2734 c0 -11 3 -14 6 -6 3 7 2 16 -1 19 -3 4 -6 -2 -5 -13z"/>
<path d="M4968 2693 c6 -2 18 -2 25 0 6 3 1 5 -13 5 -14 0 -19 -2 -12 -5z"/>
<path d="M4918 2683 c6 -2 18 -2 25 0 6 3 1 5 -13 5 -14 0 -19 -2 -12 -5z"/>
<path d="M4828 2673 c12 -2 32 -2 45 0 12 2 2 4 -23 4 -25 0 -35 -2 -22 -4z"/>
<path d="M4393 2431 c-103 -36 -153 -62 -72 -37 24 7 71 21 104 31 33 9 71 23
85 31 47 25 -10 13 -117 -25z"/>
<path d="M3065 2285 c-151 -79 -367 -219 -450 -293 -51 -46 -40 -49 15 -5 142
113 403 252 452 240 161 -41 200 -47 333 -47 77 0 181 -7 230 -15 50 -8 119
-14 155 -13 36 0 54 2 40 5 -61 9 -161 36 -166 44 -3 5 3 6 13 3 17 -5 17 -5
0 6 -9 6 -22 8 -29 4 -7 -4 -8 -3 -4 5 5 7 -4 16 -23 24 -30 13 -26 14 74 24
66 7 110 16 119 26 13 12 -10 15 -182 21 -108 3 -262 9 -342 12 l-145 6 -90
-47z"/>
<path d="M4228 2094 c12 -17 26 -51 31 -74 9 -42 9 -45 -26 -78 -32 -30 -34
-35 -21 -49 12 -12 20 -13 37 -4 11 7 21 18 21 26 0 8 5 15 11 15 13 0 2 84
-18 127 -8 17 -24 39 -36 50 l-21 18 22 -31z"/>
<path d="M4162 2020 c0 -14 2 -19 5 -12 2 6 2 18 0 25 -3 6 -5 1 -5 -13z"/>
<path d="M3925 1970 c-10 -16 14 -50 36 -50 25 0 35 25 19 45 -14 17 -46 20
-55 5z"/>
<path d="M4080 1645 c0 -30 99 -61 115 -35 6 10 -36 32 -87 44 -21 5 -28 3
-28 -9z"/>
<path d="M2058 1533 c-27 -26 -77 -79 -111 -118 -47 -55 -35 -45 56 45 64 63
117 116 117 117 0 10 -17 -3 -62 -44z"/>
</g>
</svg>
